<?xml version="1.0" standalone="no"?>
<!DOCTYPE svg PUBLIC "-//W3C//DTD SVG 20010904//EN"
 "http://www.w3.org/TR/2001/REC-SVG-20010904/DTD/svg10.dtd">
<svg version="1.0" xmlns="http://www.w3.org/2000/svg"
 width="678.000000pt" height="671.000000pt" viewBox="0 0 678.000000 671.000000"
 preserveAspectRatio="xMidYMid meet">

<g transform="translate(0.000000,671.000000) scale(0.100000,-0.100000)"
fill="#000000" stroke="none">
<path d="M3177 6523 c-3 -2 -29 -4 -58 -5 -33 0 -46 -3 -35 -7 10 -4 -17 -8
-60 -8 -211 -2 -647 -123 -959 -267 -204 -94 -493 -275 -688 -431 -214 -170
-453 -420 -590 -616 -305 -439 -495 -947 -558 -1494 -18 -157 -16 -399 5 -514
19 -106 49 -185 68 -179 33 10 49 81 88 389 22 173 45 341 50 374 44 254 116
499 200 681 21 47 46 112 54 145 19 74 118 269 198 392 71 109 184 251 277
349 131 140 397 344 651 500 288 178 682 345 951 403 41 9 81 19 89 22 8 3 34
7 58 9 24 2 48 7 55 11 7 4 28 8 47 9 19 2 76 7 125 13 50 6 118 11 152 11 34
0 64 4 67 8 2 4 -46 7 -107 7 -62 -1 -102 0 -89 2 27 5 29 33 2 40 -11 3 -20
9 -20 14 0 5 9 9 20 9 11 0 20 5 20 10 0 6 -9 10 -20 10 -13 0 -20 7 -20 20 0
13 7 20 20 20 11 0 20 6 20 13 0 8 3 8 9 -2 7 -11 17 -12 54 -2 25 6 61 12 79
12 26 1 22 3 -17 9 -27 4 -95 6 -150 4 -55 -1 -91 0 -80 3 11 3 26 10 32 15
12 9 26 8 88 -8 17 -4 18 -3 5 6 -12 9 -11 10 8 5 25 -7 107 3 98 12 -7 7
-133 12 -139 6z m96 -10 c-7 -2 -19 -2 -25 0 -7 3 -2 5 12 5 14 0 19 -2 13 -5z
m-223 -23 c-12 -8 -12 -10 -1 -10 8 0 12 -2 9 -5 -3 -3 -13 -2 -22 1 -14 5
-15 9 -4 15 7 5 18 9 23 9 6 0 3 -5 -5 -10z m223 -17 c-7 -2 -21 -2 -30 0 -10
3 -4 5 12 5 17 0 24 -2 18 -5z m-408 -183 c13 -6 15 -9 5 -9 -8 0 -22 4 -30 9
-18 12 -2 12 25 0z"/>
<path d="M3338 6523 c7 -3 16 -2 19 1 4 3 -2 6 -13 5 -11 0 -14 -3 -6 -6z"/>
<path d="M3393 6523 c9 -2 25 -2 35 0 9 3 1 5 -18 5 -19 0 -27 -2 -17 -5z"/>
<path d="M3128 6493 c7 -3 16 -2 19 1 4 3 -2 6 -13 5 -11 0 -14 -3 -6 -6z"/>
<path d="M3206 6403 c-3 -4 -6 -16 -6 -29 0 -17 4 -21 20 -17 11 3 20 12 20
19 0 8 11 14 27 14 14 0 24 2 22 4 -8 7 -77 14 -83 9z"/>
<path d="M3368 6373 c7 -3 16 -2 19 1 4 3 -2 6 -13 5 -11 0 -14 -3 -6 -6z"/>
<path d="M3418 6353 c7 -3 16 -2 19 1 4 3 -2 6 -13 5 -11 0 -14 -3 -6 -6z"/>
<path d="M2238 4453 c-285 -285 -524 -527 -532 -538 -46 -61 28 -150 96 -114
12 7 238 230 502 496 263 265 483 483 488 483 5 0 72 -62 149 -139 76 -76 139
-136 139 -134 0 2 18 -17 40 -42 22 -25 40 -44 40 -40 0 3 14 -10 31 -30 17
-19 35 -32 40 -29 5 3 9 0 9 -6 0 -6 27 -38 60 -72 57 -59 82 -76 40 -28 -11
12 -17 26 -15 31 3 4 -4 10 -15 14 -26 8 -41 36 -35 65 2 13 2 20 -2 16 -3 -3
-12 -1 -20 5 -11 10 -9 15 8 30 19 17 22 28 20 106 -1 49 -6 90 -12 91 -5 2
-7 8 -3 13 3 5 -3 9 -12 9 -10 0 -14 3 -11 6 3 4 44 10 89 14 77 7 73 7 -62 9
l-144 1 -151 150 c-136 135 -155 150 -186 150 -32 0 -69 -35 -551 -517z m796
156 c-3 -5 -10 -7 -15 -3 -5 3 -7 10 -3 15 3 5 10 7 15 3 5 -3 7 -10 3 -15z
m73 -76 c0 -10 -4 -10 -16 -1 -9 7 -18 13 -20 15 -2 1 5 1 16 0 11 0 20 -7 20
-14z m90 -94 c2 -20 1 -21 -7 -7 -6 10 -18 22 -28 28 -14 8 -13 9 7 7 17 -3
25 -11 28 -28z m64 -66 c13 -17 13 -17 -6 -3 -11 8 -22 16 -24 17 -2 2 0 3 6
3 6 0 17 -8 24 -17z"/>
<path d="M2570 4134 l0 -95 48 3 c26 2 46 6 45 11 -2 4 -3 45 -3 92 l0 85 -45
0 -45 0 0 -96z"/>
<path d="M2820 4135 l0 -95 51 0 c40 0 49 3 42 13 -6 6 -10 49 -9 95 l1 82
-42 0 -43 0 0 -95z"/>
<path d="M3380 4215 c0 -12 40 -48 47 -42 3 4 1 7 -7 7 -10 0 -10 3 0 15 11
13 10 14 -4 9 -9 -3 -16 -1 -16 5 0 6 -4 11 -10 11 -5 0 -10 -2 -10 -5z"/>
<path d="M2570 3885 l0 -95 48 0 47 0 -5 80 c-3 44 -2 80 2 80 4 0 5 7 2 15
-4 10 -20 15 -50 15 l-44 0 0 -95z"/>
<path d="M2820 3885 l0 -95 51 0 c33 0 48 4 43 11 -11 18 -13 103 -3 121 6 11
6 18 0 18 -5 0 -7 9 -4 20 5 18 0 20 -41 20 l-46 0 0 -95z"/>
<path d="M4723 2888 c-152 -463 -157 -483 -114 -475 15 2 313 889 308 917 -1
8 -11 16 -22 18 -19 3 -35 -42 -172 -460z"/>
<path d="M4317 3262 c-43 -47 -317 -438 -317 -452 0 -43 19 -50 154 -52 l130
-3 -3 -65 c-1 -36 -4 -73 -7 -82 -4 -15 1 -18 35 -18 69 0 71 3 71 91 l0 78
49 -6 49 -6 11 39 c16 57 14 65 -11 60 -13 -3 -40 -8 -60 -11 l-38 -6 0 168
c1 92 5 188 10 213 9 50 7 55 -31 64 -18 4 -31 0 -42 -12z m-27 -288 l0 -144
-111 0 c-61 0 -109 4 -107 9 10 26 204 288 210 284 5 -2 8 -69 8 -149z"/>
<path d="M5015 3246 c-8 -19 -15 -45 -15 -57 0 -21 3 -22 73 -15 205 17 267
19 267 7 0 -7 -67 -141 -150 -297 -82 -156 -150 -286 -150 -289 0 -3 16 -5 35
-5 73 0 72 -2 205 328 67 169 123 314 124 322 1 13 -26 16 -164 21 -91 3 -175
9 -188 14 -19 6 -24 2 -37 -29z"/>
<path d="M2873 3261 c-99 -25 -196 -116 -230 -216 -21 -62 -22 -165 -4 -228
32 -112 175 -215 309 -225 60 -4 74 -1 122 23 79 40 110 64 110 86 0 20 -10
24 -25 10 -6 -5 -34 -16 -64 -26 -103 -34 -237 5 -302 86 -104 132 -90 336 28
406 67 39 157 37 249 -6 l69 -32 17 22 c28 34 23 66 -14 86 -37 19 -209 28
-265 14z"/>
<path d="M3572 3257 c-54 -17 -82 -50 -82 -97 0 -22 3 -40 6 -40 3 0 33 20 65
44 125 94 229 60 216 -70 -9 -85 -45 -146 -187 -316 -71 -86 -130 -160 -130
-165 0 -5 87 -10 201 -10 l201 -1 14 35 c34 81 26 116 -17 77 -12 -11 -52 -19
-130 -25 -114 -10 -139 -8 -139 11 0 6 56 69 124 141 161 168 196 235 165 316
-27 73 -100 113 -204 112 -38 -1 -85 -6 -103 -12z"/>
<path d="M1360 3247 c0 -7 16 -19 35 -26 27 -9 37 -20 45 -49 11 -40 12 -441
1 -482 -4 -17 -21 -32 -49 -45 -23 -11 -42 -24 -42 -30 0 -6 82 -10 239 -10
225 0 240 1 261 20 31 28 50 68 50 105 0 38 -13 38 -42 -1 -32 -43 -87 -69
-162 -76 -88 -8 -130 1 -144 33 -14 29 -16 193 -3 213 6 9 25 14 52 13 54 -2
76 -9 112 -34 l27 -19 30 66 c17 37 30 71 30 76 0 4 -21 -3 -47 -17 -41 -21
-58 -24 -128 -22 l-80 3 0 108 c0 131 5 137 102 137 76 0 129 -20 145 -54 17
-38 32 -32 46 19 25 92 45 85 -233 85 -194 0 -245 -3 -245 -13z"/>
<path d="M1980 3246 c0 -9 7 -16 15 -16 9 0 27 -11 40 -25 l25 -24 0 -251 0
-251 -25 -24 c-13 -14 -31 -25 -40 -25 -8 0 -15 -7 -15 -15 0 -13 20 -15 142
-13 150 3 186 16 104 37 -26 6 -50 19 -56 30 -5 11 -10 57 -10 103 l0 83 93 0
c140 0 221 42 257 132 21 54 9 144 -24 188 -53 69 -94 80 -313 83 -170 3 -193
2 -193 -12z m359 -52 c36 -22 59 -55 72 -106 27 -101 -24 -181 -124 -193 -31
-4 -73 -4 -92 -1 l-35 7 0 137 c0 75 4 142 8 149 21 33 121 37 171 7z"/>
<path d="M760 3068 c-56 -121 -64 -232 -25 -401 28 -125 76 -231 135 -300 49
-55 126 -111 141 -101 18 11 48 91 65 176 31 155 2 336 -76 474 -36 61 -136
172 -179 197 l-31 18 -30 -63z"/>
<path d="M370 2865 c0 -11 7 -42 15 -70 l15 -50 -6 55 c-6 57 -23 104 -24 65z"/>
<path d="M406 2685 c5 -56 44 -239 50 -232 2 2 -7 57 -21 123 -33 166 -33 165
-29 109z"/>
<path d="M585 2440 c-4 -6 -7 -55 -7 -108 -1 -117 25 -202 99 -325 93 -153
197 -246 330 -292 l68 -24 7 22 c12 42 8 158 -8 230 -46 205 -177 374 -359
462 -86 41 -120 51 -130 35z"/>
<path d="M466 2410 c4 -14 13 -38 20 -55 11 -24 13 -25 8 -5 -4 14 -13 39 -20
55 -11 24 -13 25 -8 5z"/>
<path d="M2500 1968 c-124 -62 -60 -259 76 -234 41 8 84 42 84 67 0 26 -7 24
-37 -11 -20 -25 -32 -30 -68 -30 -36 0 -48 5 -69 31 -30 35 -33 76 -11 119 31
60 100 68 146 19 41 -44 60 -32 20 13 -39 44 -86 53 -141 26z"/>
<path d="M1920 1855 l0 -125 80 0 c64 0 80 3 80 15 0 12 -14 15 -65 15 l-65 0
0 45 0 45 60 0 c33 0 60 4 60 10 0 6 -27 10 -60 10 l-60 0 0 45 0 45 65 0 c37
0 65 4 65 10 0 6 -33 10 -80 10 l-80 0 0 -125z"/>
<path d="M2182 1860 c2 -69 7 -121 13 -123 6 -1 11 19 13 46 3 47 3 47 38 47
41 0 89 22 98 45 24 64 -17 105 -106 105 l-59 0 3 -120z m135 74 c17 -23 16
-27 -5 -54 -11 -13 -33 -23 -60 -27 l-42 -6 0 58 0 58 47 -6 c29 -3 52 -12 60
-23z"/>
<path d="M2926 1967 c-23 -17 -24 -62 -2 -86 15 -16 14 -19 -9 -39 -32 -28
-34 -75 -3 -96 28 -20 45 -20 82 -1 26 14 31 14 48 -1 23 -21 34 -13 17 14
-10 17 -10 25 5 47 23 34 10 47 -15 16 l-20 -24 -30 29 -29 28 30 24 c18 14
30 33 30 46 0 47 -63 73 -104 43z m74 -22 c10 -12 9 -20 -4 -40 -21 -32 -43
-32 -58 0 -19 43 32 76 62 40z m-15 -135 c16 -16 27 -31 24 -34 -52 -45 -128
-5 -83 45 22 25 25 24 59 -11z"/>
<path d="M3381 1958 c-5 -13 -27 -65 -50 -117 -44 -101 -47 -111 -30 -111 5 0
17 16 25 35 l14 35 68 0 68 0 13 -35 c12 -34 31 -48 31 -22 0 6 -21 63 -47
124 -35 83 -53 113 -66 113 -10 0 -21 -10 -26 -22z m48 -52 c39 -89 39 -86
-24 -86 -42 0 -56 3 -52 13 32 76 50 117 53 117 2 0 12 -20 23 -44z"/>
<path d="M3621 1953 c-34 -42 -1 -103 55 -103 26 0 64 -32 64 -53 0 -44 -78
-51 -108 -10 -25 34 -42 22 -22 -15 31 -54 118 -50 147 7 21 43 -14 85 -80 96
-28 5 -38 12 -43 31 -13 50 54 75 91 34 21 -23 35 -26 35 -7 0 26 -36 47 -78
47 -32 0 -45 -6 -61 -27z"/>
<path d="M3870 1855 l0 -125 48 1 c106 1 157 49 115 107 -18 25 -18 29 -4 54
14 25 14 29 -5 55 -19 25 -28 28 -88 31 l-66 3 0 -126z m121 95 c11 -6 19 -21
19 -36 0 -28 -31 -44 -86 -44 -34 0 -34 0 -34 45 l0 45 41 0 c22 0 49 -5 60
-10z m3 -110 c18 -6 26 -17 26 -33 0 -35 -19 -47 -77 -47 l-53 0 0 45 0 45 39
0 c22 0 51 -4 65 -10z"/>
<path d="M4152 1858 l3 -123 74 0 c51 0 76 4 79 13 3 9 -14 12 -62 12 l-66 0
0 45 0 45 60 0 c33 0 60 4 60 10 0 6 -27 10 -60 10 l-60 0 0 45 0 45 65 0 c37
0 65 4 65 10 0 6 -33 10 -80 10 l-81 0 3 -122z"/>
<path d="M4416 1958 c-34 -48 -14 -90 52 -108 54 -15 64 -24 60 -56 -3 -25 -8
-29 -39 -32 -30 -2 -41 2 -58 24 -18 23 -22 24 -27 9 -11 -27 30 -60 75 -60
48 0 81 27 81 65 0 34 -26 58 -82 74 -32 10 -44 19 -46 35 -8 50 62 72 92 29
12 -16 19 -19 27 -11 8 8 5 17 -10 32 -30 30 -104 29 -125 -1z"/>
<path d="M4640 1970 c0 -5 18 -10 40 -10 l39 0 3 -110 c2 -65 7 -110 13 -110
6 0 11 45 13 110 l3 110 39 0 c22 0 40 5 40 10 0 6 -38 10 -95 10 -57 0 -95
-4 -95 -10z"/>
<path d="M620 1735 c0 -31 31 -138 52 -179 75 -148 283 -313 448 -356 65 -17
182 -26 198 -16 5 3 4 27 -3 53 -34 130 -89 228 -180 316 -118 116 -265 181
-437 194 -70 5 -78 4 -78 -12z m601 -310 c5 4 6 -1 2 -10 -5 -13 -7 -14 -14
-3 -5 7 -8 18 -8 23 0 6 3 4 6 -3 2 -6 9 -10 14 -7z"/>
<path d="M1028 1130 c-53 -9 -148 -39 -148 -46 0 -15 39 -76 77 -122 76 -89
197 -158 353 -201 77 -22 127 -27 77 -9 -26 9 -27 11 -10 24 16 12 16 13 -7 8
-23 -5 -24 -4 -7 9 21 17 25 135 5 156 -10 11 -10 14 0 18 6 3 12 13 12 23 0
10 -6 21 -12 24 -9 3 -7 10 7 22 16 14 17 16 3 10 -25 -9 -44 -13 -35 -9 4 3
7 11 7 18 0 8 5 17 12 21 7 5 8 2 3 -7 -5 -8 -5 -11 0 -7 4 4 20 1 36 -7 32
-17 54 -20 26 -4 -9 6 -15 14 -12 20 6 8 -9 13 -29 10 -4 -1 -20 6 -34 15 -14
9 -37 18 -52 19 -15 1 -32 5 -38 9 -18 11 -181 15 -234 6z m307 -50 c3 -5 -1
-10 -10 -10 -9 0 -13 5 -10 10 3 6 8 10 10 10 2 0 7 -4 10 -10z m-140 -230
c-3 -5 -12 -10 -18 -10 -7 0 -6 4 3 10 19 12 23 12 15 0z"/>
<path d="M1398 763 c7 -3 16 -2 19 1 4 3 -2 6 -13 5 -11 0 -14 -3 -6 -6z"/>
<path d="M1915 577 c27 -24 138 -89 124 -74 -6 7 -114 78 -139 91 -8 5 -1 -3
15 -17z"/>
<path d="M2080 516 c0 -8 126 -74 165 -85 22 -7 55 -20 73 -29 25 -13 29 -18
16 -23 -18 -6 89 -47 257 -98 133 -41 336 -82 367 -75 19 4 23 3 14 -4 -16
-11 88 -24 213 -27 44 -1 100 -6 124 -10 31 -5 42 -4 37 4 -4 6 -19 11 -34 11
-46 0 -102 12 -102 22 0 5 8 7 18 4 9 -3 53 -1 97 3 l80 8 -110 1 c-60 0 -134
5 -163 11 -39 8 -59 8 -74 0 -12 -6 -18 -7 -14 -1 6 10 -33 21 -276 72 -268
58 -413 103 -650 204 -21 9 -38 14 -38 12z m1105 -317 c14 -6 7 -7 -24 -3 -30
4 -41 3 -37 -5 5 -7 1 -9 -9 -4 -13 5 -14 7 -3 14 17 11 47 10 73 -2z"/>
<path d="M2250 400 c8 -5 20 -10 25 -10 6 0 3 5 -5 10 -8 5 -19 10 -25 10 -5
0 -3 -5 5 -10z"/>
<path d="M3308 193 c7 -3 16 -2 19 1 4 3 -2 6 -13 5 -11 0 -14 -3 -6 -6z"/>
<path d="M3418 173 c7 -3 16 -2 19 1 4 3 -2 6 -13 5 -11 0 -14 -3 -6 -6z"/>
<path d="M3428 153 c6 -2 18 -2 25 0 6 3 1 5 -13 5 -14 0 -19 -2 -12 -5z"/>
</g>
</svg>
